<?xml version="1.0" encoding="utf-8"?>
<svg version="1.0" width="64.000000pt" height="64.000000pt" viewBox="0 0 64.000000 64.000000" preserveAspectRatio="xMidYMid meet" xmlns="http://www.w3.org/2000/svg">
  <g transform="translate(0.000000,64.000000) scale(0.100000,-0.100000)" fill="#000000" stroke="none">
    <path d="M90 610 c0 -5 5 -10 10 -10 6 0 10 5 10 10 0 6 -4 10 -10 10 -5 0 -10 -4 -10 -10z"/>
    <path d="M130 610 c0 -5 5 -10 10 -10 6 0 10 5 10 10 0 6 -4 10 -10 10 -5 0 -10 -4 -10 -10z"/>
    <path d="M170 610 c0 -5 5 -10 10 -10 6 0 10 5 10 10 0 6 -4 10 -10 10 -5 0 -10 -4 -10 -10z"/>
    <path d="M450 610 c0 -5 5 -10 10 -10 6 0 10 5 10 10 0 6 -4 10 -10 10 -5 0 -10 -4 -10 -10z"/>
    <path d="M490 610 c0 -5 5 -10 10 -10 6 0 10 5 10 10 0 6 -4 10 -10 10 -5 0 -10 -4 -10 -10z"/>
    <path d="M530 610 c0 -5 5 -10 10 -10 6 0 10 5 10 10 0 6 -4 10 -10 10 -5 0 -10 -4 -10 -10z"/>
    <path d="M130 570 c0 -5 5 -10 10 -10 6 0 10 5 10 10 0 6 -4 10 -10 10 -5 0 -10 -4 -10 -10z"/>
    <path d="M490 570 c0 -5 5 -10 10 -10 6 0 10 5 10 10 0 6 -4 10 -10 10 -5 0 -10 -4 -10 -10z"/>
    <path d="M20 480 c0 -33 3 -40 20 -40 18 0 20 -7 20 -70 l0 -70 80 0 80 0 0 70 c0 63 2 70 20 70 17 0 20 7 20 40 l0 40 -120 0 -120 0 0 -40z m90 5 c7 -8 20 -15 30 -15 10 0 23 7 30 15 7 8 25 15 41 15 22 0 29 -5 29 -20 0 -13 -7 -20 -20 -20 -18 0 -20 -7 -20 -70 l0 -70 -60 0 -60 0 0 70 c0 63 -2 70 -20 70 -13 0 -20 7 -20 20 0 15 7 20 29 20 16 0 34 -7 41 -15z"/>
    <path d="M380 480 c0 -33 3 -40 20 -40 18 0 20 -7 20 -70 l0 -70 80 0 80 0 0 70 c0 63 2 70 20 70 17 0 20 7 20 40 l0 40 -120 0 -120 0 0 -40z m90 5 c7 -8 20 -15 30 -15 10 0 23 7 30 15 7 8 25 15 41 15 22 0 29 -5 29 -20 0 -13 -7 -20 -20 -20 -18 0 -20 -7 -20 -70 l0 -70 -60 0 -60 0 0 70 c0 63 -2 70 -20 70 -13 0 -20 7 -20 20 0 15 7 20 29 20 16 0 34 -7 41 -15z"/>
    <path d="M250 351 c0 -46 22 -70 45 -51 17 14 21 90 5 90 -5 0 -10 -16 -10 -35 0 -19 -4 -35 -10 -35 -5 0 -10 16 -10 35 0 19 -4 35 -10 35 -5 0 -10 -17 -10 -39z"/>
    <path d="M337 383 c-4 -3 -7 -17 -7 -30 0 -16 6 -23 20 -23 11 0 20 -4 20 -10 0 -5 -9 -10 -20 -10 -11 0 -20 -5 -20 -11 0 -6 12 -9 28 -7 21 2 28 9 30 31 3 22 -1 27 -17 27 -12 0 -21 5 -21 10 0 6 9 10 20 10 11 0 20 5 20 10 0 11 -43 14 -53 3z"/>
    <path d="M60 215 l0 -65 80 0 80 0 0 65 0 65 -80 0 -80 0 0 -65z m140 0 c0 -41 -2 -45 -25 -45 -18 0 -25 5 -25 20 0 11 -4 20 -10 20 -5 0 -10 -9 -10 -20 0 -15 -7 -20 -25 -20 -23 0 -25 4 -25 45 l0 45 60 0 60 0 0 -45z"/>
    <path d="M420 215 l0 -65 80 0 80 0 0 65 0 65 -80 0 -80 0 0 -65z m140 0 c0 -41 -2 -45 -25 -45 -18 0 -25 5 -25 20 0 11 -4 20 -10 20 -5 0 -10 -9 -10 -20 0 -15 -7 -20 -25 -20 -23 0 -25 4 -25 45 l0 45 60 0 60 0 0 -45z"/>
    <path d="M270 260 c0 -5 5 -10 10 -10 6 0 10 5 10 10 0 6 -4 10 -10 10 -5 0 -10 -4 -10 -10z"/>
    <path d="M310 260 c0 -5 5 -10 10 -10 6 0 10 5 10 10 0 6 -4 10 -10 10 -5 0 -10 -4 -10 -10z"/>
    <path d="M350 260 c0 -5 5 -10 10 -10 6 0 10 5 10 10 0 6 -4 10 -10 10 -5 0 -10 -4 -10 -10z"/>
    <path d="M74 86 c-3 -8 -4 -25 -2 -38 2 -17 9 -23 28 -23 22 0 25 4 25 35 0 29 -4 36 -23 38 -13 2 -24 -3 -28 -12z m36 -26 c0 -11 -4 -20 -10 -20 -5 0 -10 9 -10 20 0 11 5 20 10 20 6 0 10 -9 10 -20z"/>
    <path d="M154 86 c-3 -8 -4 -25 -2 -38 2 -17 9 -23 28 -23 22 0 25 4 25 35 0 29 -4 36 -23 38 -13 2 -24 -3 -28 -12z m36 -26 c0 -11 -4 -20 -10 -20 -5 0 -10 9 -10 20 0 11 5 20 10 20 6 0 10 -9 10 -20z"/>
    <path d="M434 86 c-3 -8 -4 -25 -2 -38 2 -17 9 -23 28 -23 22 0 25 4 25 35 0 29 -4 36 -23 38 -13 2 -24 -3 -28 -12z m36 -26 c0 -11 -4 -20 -10 -20 -5 0 -10 9 -10 20 0 11 5 20 10 20 6 0 10 -9 10 -20z"/>
    <path d="M514 86 c-3 -8 -4 -25 -2 -38 2 -17 9 -23 28 -23 22 0 25 4 25 35 0 29 -4 36 -23 38 -13 2 -24 -3 -28 -12z m36 -26 c0 -11 -4 -20 -10 -20 -5 0 -10 9 -10 20 0 11 5 20 10 20 6 0 10 -9 10 -20z"/>
  </g>
  <rect x="3.619" y="13.481" width="21.357" height="5.392" style="stroke: rgb(0, 0, 0);"/>
  <rect x="39.592" y="13.268" width="21.144" height="5.392" style="stroke: rgb(0, 0, 0);"/>
  <rect x="42.572" y="18.448" width="14.191" height="14.262" style="stroke: rgb(0, 0, 0);"/>
  <rect x="43.282" y="36.683" width="13.694" height="10.714" style="stroke: rgb(0, 0, 0);"/>
  <rect x="7.308" y="37.534" width="14.049" height="10.288" style="fill: rgb(216, 216, 216); stroke: rgb(0, 0, 0);"/>
  <rect x="20.435" y="47.823" width="0.922" height="0.071" style="stroke: rgb(0, 0, 0);"/>
  <rect x="15.752" y="44.772" width="2.554" height="0.142" style="fill: rgb(216, 216, 216); stroke: rgb(0, 0, 0);"/>
  <rect x="7.166" y="36.541" width="14.262" height="11.494" style="stroke: rgb(0, 0, 0);"/>
  <rect x="7.166" y="18.874" width="13.41" height="13.907" style="stroke: rgb(0, 0, 0);"/>
  <rect x="8.585" y="55.911" width="2.625" height="4.115" style="stroke: rgb(0, 0, 0);"/>
  <rect x="44.701" y="56.053" width="2.483" height="4.186" style="stroke: rgb(0, 0, 0);"/>
  <rect x="16.745" y="55.698" width="2.341" height="4.541" style="stroke: rgb(0, 0, 0);"/>
  <rect x="52.789" y="55.769" width="2.412" height="4.257" style="stroke: rgb(0, 0, 0);"/>
</svg>